<?xml version="1.0" encoding="utf-8"?>
<!-- Generator: Adobe Illustrator 17.0.0, SVG Export Plug-In . SVG Version: 6.00 Build 0)  -->
<!DOCTYPE svg PUBLIC "-//W3C//DTD SVG 1.1//EN" "http://www.w3.org/Graphics/SVG/1.1/DTD/svg11.dtd">
<svg version="1.1" id="Calque_1" xmlns="http://www.w3.org/2000/svg" xmlns:xlink="http://www.w3.org/1999/xlink" x="0px" y="0px"
	 width="174.8px" height="85.9px" viewBox="0 0 174.8 85.9" style="enable-background:new 0 0 174.8 85.9;" xml:space="preserve">
<g>
	<path style="fill-rule:evenodd;clip-rule:evenodd;" d="M50.6,49.1c0-3.8,3-6.8,6.8-6.8c3.8,0,7,3,7,6.8c0,3.8-3.2,7-7,7
		C53.6,56,50.6,52.9,50.6,49.1L50.6,49.1z M37.1,49.1c0-11.1,9.1-20.3,20.3-20.3c11.3,0,20.3,9.1,20.3,20.3s-8.9,20.3-20.3,20.3
		C46.3,69.4,37.1,60.2,37.1,49.1L37.1,49.1z"/>
	<path style="fill-rule:evenodd;clip-rule:evenodd;" d="M94.9,49.1c0-3.8,3.2-6.8,7-6.8s7,3,7,6.8c0,3.8-3.2,7-7,7
		S94.9,52.9,94.9,49.1L94.9,49.1z M81.6,49.1c0-11.1,9.1-20.3,20.3-20.3c11.1,0,20.3,9.1,20.3,20.3s-9.1,20.3-20.3,20.3
		C90.8,69.4,81.6,60.2,81.6,49.1L81.6,49.1z"/>
	<polygon style="fill-rule:evenodd;clip-rule:evenodd;" points="3.4,30.4 3.4,42.1 16.7,42.1 0,67.8 35.9,67.8 35.9,56.6 21.8,56.6 
		38.1,30.4 3.4,30.4 	"/>
	<polygon style="fill-rule:evenodd;clip-rule:evenodd;" points="163.6,30.4 174.8,30.4 174.8,54.5 163.6,54.5 163.6,30.4 	"/>
	<path style="fill-rule:evenodd;clip-rule:evenodd;" d="M162.6,62.8c0-3.6,2.8-6.6,6.6-6.6c3.6,0,6.6,3,6.6,6.6c0,3.6-3,6.6-6.6,6.6
		C165.4,69.4,162.6,66.4,162.6,62.8L162.6,62.8z"/>
	<path style="fill-rule:evenodd;clip-rule:evenodd;fill:#ED1C28;" d="M133.6,11.6l-0.2,1.6c2,0.4,3.6,0.8,3.6,2.2c0,1.2-1,4-1.4,5.8
		l-13.5,46.7h7.3c3.2-11.3,13.7-30.8,19.1-30.8c1.4,0,1.8,0.6,1.8,2.4c0,2.6-7.5,21.1-7.7,25c0,2.6,1.2,4.4,3.8,4.4
		c6.4,0,10.5-8.1,13.7-12.7l-1.4-1.2c-1.4,1.6-5.4,8.7-7.3,8.7c-0.8,0-1.2-0.4-1.2-1.2c0-2.8,7.5-19.5,7.5-23.4c0-3.4-2-6.2-5.8-6.2
		c-8.3,0-14.5,13.3-17.5,18.7h-0.2l11.9-40.3L133.6,11.6L133.6,11.6z"/>
</g>
<linearGradient id="SVGID_1_" gradientUnits="userSpaceOnUse" x1="0" y1="80.907" x2="174.7551" y2="80.907">
	<stop  offset="0" style="stop-color:#FFFFFF"/>
	<stop  offset="1" style="stop-color:#000000"/>
</linearGradient>
<rect x="0" y="75.9" style="fill:url(#SVGID_1_);" width="174.8" height="10"/>
</svg>
